<?xml version="1.0" standalone="no"?>
<!DOCTYPE svg PUBLIC "-//W3C//DTD SVG 20010904//EN"
 "http://www.w3.org/TR/2001/REC-SVG-20010904/DTD/svg10.dtd">
<svg version="1.0" xmlns="http://www.w3.org/2000/svg"
 width="640.000000pt" height="640.000000pt" viewBox="0 0 640.000000 640.000000"
 preserveAspectRatio="xMidYMid meet">
<metadata>
Created by potrace 1.14, written by Peter Selinger 2001-2017
</metadata>
<g transform="translate(0.000000,640.000000) scale(0.100000,-0.100000)"
fill="#000000" stroke="none">
<path d="M2899 5205 c-238 -45 -471 -169 -649 -346 -63 -62 -97 -106 -119
-151 -42 -86 -81 -228 -88 -320 -5 -69 -8 -77 -31 -87 -46 -22 -143 -103 -192
-162 -111 -133 -204 -338 -250 -549 -7 -30 -15 -129 -17 -220 -6 -215 13 -384
55 -470 17 -36 22 -54 13 -46 -14 13 -21 10 -58 -25 -24 -22 -43 -46 -43 -54
0 -7 -4 -17 -10 -20 -15 -9 -12 -142 4 -173 23 -45 89 -98 131 -107 65 -14
101 -12 96 5 -31 112 -43 171 -53 257 l-12 103 26 27 c49 53 51 67 59 304 4
124 10 247 14 275 30 232 165 524 306 661 83 80 154 129 274 188 172 84 380
157 564 196 125 26 398 37 508 20 105 -17 254 -55 336 -86 279 -105 569 -352
633 -538 18 -52 24 -56 42 -27 7 11 16 20 20 20 13 0 88 -138 115 -210 50
-135 59 -200 66 -475 7 -277 9 -288 61 -335 l27 -25 -14 -105 c-7 -58 -22
-138 -33 -178 -11 -40 -20 -76 -20 -81 0 -9 38 -8 95 4 106 22 187 178 140
269 -8 15 -15 32 -15 37 0 13 -73 78 -89 79 -8 0 -11 7 -8 18 48 146 75 381
62 546 -19 255 -113 515 -247 688 -26 33 -29 44 -32 135 -9 256 -167 503 -436
679 -207 135 -415 222 -635 265 -145 28 -480 36 -596 14z m1871 -2355 c0 -5
-5 -10 -11 -10 -5 0 -7 5 -4 10 3 6 8 10 11 10 2 0 4 -4 4 -10z"/>
<path d="M2785 4098 c-55 -10 -223 -40 -374 -68 -302 -54 -315 -59 -315 -124
0 -38 17 -64 51 -77 21 -8 202 22 653 105 146 28 170 41 170 96 0 34 -32 76
-62 82 -13 2 -68 -4 -123 -14z"/>
<path d="M3480 4113 c-35 -13 -60 -47 -60 -80 0 -52 35 -78 122 -92 40 -6 212
-36 381 -67 292 -53 309 -55 333 -39 46 30 53 94 14 130 -12 11 -130 37 -377
81 -197 36 -367 67 -378 69 -11 2 -27 1 -35 -2z"/>
<path d="M2035 3736 c-61 -19 -86 -34 -133 -79 -64 -62 -82 -121 -82 -265 0
-196 39 -301 155 -418 123 -125 229 -164 445 -164 155 0 216 12 317 64 166 84
271 247 281 436 3 53 10 98 16 102 14 9 167 10 269 2 l77 -7 0 -66 c0 -141 51
-261 155 -367 76 -77 155 -124 252 -149 78 -20 309 -20 388 0 166 43 304 163
372 325 26 62 28 73 28 230 0 151 -2 168 -22 206 -31 59 -79 103 -143 133
l-55 26 -380 0 c-380 0 -380 0 -425 -24 -94 -49 -170 -154 -170 -237 l0 -24
-177 2 -177 3 -8 42 c-15 88 -80 172 -168 215 -44 22 -53 23 -410 25 -276 2
-375 -1 -405 -11z m775 -42 c39 -11 65 -28 100 -64 64 -65 73 -104 68 -277 -4
-135 -4 -140 -41 -215 -66 -137 -176 -231 -315 -269 -87 -25 -306 -26 -396 -3
-167 43 -307 185 -355 359 -6 22 -11 96 -11 166 0 115 2 129 26 177 31 62 83
108 144 127 70 21 706 21 780 -1z m1554 2 c142 -43 199 -165 177 -381 -14
-141 -56 -232 -145 -320 -116 -113 -207 -145 -417 -145 -110 0 -150 4 -205 21
-165 50 -297 184 -338 344 -10 38 -16 103 -16 180 0 110 2 126 26 173 29 59
86 109 147 128 63 19 706 19 771 0z"/>
<path d="M2582 3528 c-17 -17 -16 -23 20 -63 23 -27 33 -33 39 -23 6 9 9 7 9
-9 0 -11 -13 -32 -29 -45 -37 -32 -56 -67 -43 -80 10 -10 151 -13 160 -3 3 2
2 11 -1 20 -5 11 -22 15 -67 15 -61 0 -68 4 -49 30 9 13 10 12 5 -2 -8 -26 6
-22 37 10 33 34 33 43 6 68 -30 27 -51 71 -39 79 6 4 9 1 8 -7 -2 -9 12 -14
50 -16 47 -3 53 -1 50 15 -3 15 -15 18 -73 21 -46 2 -74 -1 -83 -10z m22 -11
c-3 -8 2 -20 11 -27 8 -7 15 -20 14 -29 0 -13 -2 -14 -6 -1 -4 8 -13 20 -21
26 -13 10 -11 44 2 44 3 0 3 -6 0 -13z m119 -4 c-7 -2 -21 -2 -30 0 -10 3 -4
5 12 5 17 0 24 -2 18 -5z m-43 -92 c0 -6 -4 -13 -10 -16 -5 -3 -10 1 -10 9 0
9 5 16 10 16 6 0 10 -4 10 -9z m-51 -98 c12 3 21 1 21 -4 0 -5 -13 -9 -30 -9
-22 0 -30 5 -30 18 0 13 2 14 9 3 5 -8 18 -12 30 -8z m68 -9 c-3 -3 -12 -4
-19 -1 -8 3 -5 6 6 6 11 1 17 -2 13 -5z"/>
<path d="M3660 3520 c0 -17 7 -20 50 -20 49 0 50 -1 47 -28 -2 -15 -6 -33 -10
-39 -4 -6 -4 -19 0 -30 6 -16 5 -16 -10 -4 -21 16 -21 16 -1 35 8 9 11 16 6
16 -5 0 -15 -7 -23 -16 -16 -20 0 -49 27 -49 11 0 25 -4 32 -8 7 -5 12 -4 12
3 0 6 -7 13 -15 16 -19 8 -20 30 -2 41 26 16 58 69 51 86 -5 14 -20 17 -85 17
-72 0 -79 -2 -79 -20z m75 0 c28 -7 28 -8 -12 -9 -23 0 -45 4 -48 9 -7 11 16
11 60 0z m55 -20 c5 0 11 6 13 13 3 6 6 8 6 2 0 -5 -4 -17 -9 -25 -9 -13 -11
-13 -20 0 -5 8 -9 22 -9 30 1 11 3 10 6 -2 2 -10 8 -18 13 -18z"/>
<path d="M3750 3370 c0 -5 5 -10 11 -10 8 0 8 -4 0 -14 -7 -8 -20 -12 -31 -9
-29 8 -70 -5 -70 -22 0 -16 16 -18 105 -15 61 2 72 11 57 45 -9 20 -17 25 -32
20 -11 -4 -20 -2 -20 4 0 6 -4 11 -10 11 -5 0 -10 -4 -10 -10z m36 -35 c-3 -8
-1 -15 4 -15 5 0 11 8 13 18 4 13 5 11 6 -5 1 -18 -4 -23 -23 -23 -19 0 -23 4
-19 20 3 11 10 20 15 20 6 0 8 -7 4 -15z m-61 -15 c3 -5 -1 -10 -10 -10 -9 0
-13 5 -10 10 3 6 8 10 10 10 2 0 7 -4 10 -10z"/>
<path d="M3164 3078 c-11 -13 -26 -36 -33 -53 -7 -16 -17 -37 -22 -45 -5 -8
-18 -34 -29 -58 -13 -26 -26 -42 -34 -39 -9 4 -12 -2 -8 -18 2 -12 -1 -26 -7
-29 -15 -10 -14 -69 1 -84 15 -15 310 -17 338 -2 15 8 18 17 13 43 -3 17 -10
36 -14 42 -5 5 -9 17 -9 27 0 10 -4 18 -8 18 -4 0 -30 45 -58 100 -39 80 -55
101 -78 110 -16 5 -30 10 -31 10 -1 0 -10 -10 -21 -22z"/>
<path d="M2567 2423 c-4 -3 -7 -123 -7 -265 l0 -258 640 0 640 0 0 265 0 265
-633 0 c-349 0 -637 -3 -640 -7z m412 -88 c34 -17 55 -62 45 -99 -3 -15 -22
-38 -40 -53 -19 -14 -37 -36 -40 -49 -5 -18 -13 -24 -35 -24 -24 0 -29 4 -29
25 0 14 15 41 35 64 19 21 35 47 35 58 0 48 -64 54 -76 7 -5 -19 -12 -24 -40
-24 -37 0 -42 12 -23 53 23 52 109 73 168 42z m438 -70 c-11 -128 -18 -156
-36 -153 -18 4 -29 62 -30 166 l-1 62 36 0 37 0 -6 -75z m141 23 c-3 -28 1
-34 20 -36 14 -2 22 -10 22 -22 0 -12 -8 -20 -22 -22 -15 -2 -23 -9 -22 -20 1
-10 2 -41 3 -69 1 -42 5 -52 21 -56 13 -3 20 -14 20 -29 0 -21 -5 -24 -37 -24
-60 0 -73 20 -73 117 0 76 -2 83 -20 83 -13 0 -20 7 -20 20 0 13 7 20 20 20
16 0 20 7 20 35 0 33 2 35 35 35 33 0 35 -2 33 -32z m-357 -70 c1 -18 1 -39 0
-45 -2 -14 2 -15 59 -17 28 -1 36 -5 38 -23 3 -20 -2 -22 -45 -25 l-48 -3 -3
-48 c-3 -43 -5 -48 -25 -45 -19 3 -22 9 -22 48 l0 45 -45 1 c-41 0 -45 3 -45
24 0 20 5 25 30 26 17 1 36 2 43 3 7 0 12 16 12 39 0 43 5 52 32 52 13 0 18
-8 19 -32z m-253 -172 c-3 -28 -6 -31 -38 -31 -32 0 -35 3 -38 32 -3 28 0 32
25 35 44 6 54 -1 51 -36z m472 -1 c0 -33 -2 -35 -35 -35 -33 0 -35 2 -35 35 0
33 2 35 35 35 33 0 35 -2 35 -35z"/>
</g>
</svg>
